<svg width="135" height="39" viewBox="0 0 135 39" fill="none" xmlns="http://www.w3.org/2000/svg">
<path d="M34.367 35.3959C33.8103 35.0313 33.2954 34.6246 32.7943 34.1992C32.5299 33.9515 32.284 33.6944 32.0381 33.4373C31.9175 33.3064 31.8015 33.1708 31.6809 33.0399L31.5928 32.9417C31.5603 32.9044 31.5603 32.9044 31.4397 32.7594C31.2541 32.5351 31.0639 32.3107 30.8876 32.077C29.4541 30.2352 28.3407 28.2204 27.3897 26.1683C26.4479 24.1115 25.6778 21.9939 25.0284 19.8576C24.7082 18.7871 24.4113 17.712 24.1469 16.6321C24.0124 16.0899 23.8871 15.5476 23.7665 15.0054L23.6598 14.5146L23.3768 15.356L21.3541 21.5919L20.8299 23.1625L20.4495 24.2517C20.2686 24.7659 20.083 25.2848 19.8881 25.7896C19.6979 26.2945 19.4985 26.79 19.2943 27.2621L19.2155 27.4398L19.132 27.5987L18.9696 27.9119C18.9418 27.968 18.9139 28.0101 18.8861 28.0521L18.7979 28.1784C18.7423 28.2625 18.682 28.3513 18.6263 28.4261C18.3943 28.6926 18.1577 28.9123 17.949 29.0245C17.7356 29.16 17.5407 29.2348 17.3134 29.2909C17.2021 29.319 17.0814 29.3423 16.933 29.3517C16.7892 29.361 16.5619 29.3563 16.3948 29.3283C16.0655 29.2675 15.8706 29.1834 15.6526 29.0665C15.4438 28.945 15.2443 28.7954 15.0495 28.571C14.9985 28.5243 14.9521 28.4542 14.9057 28.3887C14.8593 28.3186 14.8082 28.2672 14.7619 28.183L14.6273 27.9399C14.6041 27.8979 14.5809 27.8605 14.5624 27.8137L14.5021 27.6642C14.1773 26.8975 13.9546 25.8411 13.7737 24.7846C13.7273 24.5228 13.6856 24.2517 13.6485 23.9806L13.5881 23.5786L13.5418 23.242L13.4165 22.265C13.282 21.1665 13.1706 20.0773 13.0639 18.9881C12.8459 16.8145 12.6557 14.6548 12.4144 12.5185C12.2938 11.4527 12.1686 10.3869 12.0015 9.34915C11.918 8.83028 11.8299 8.31607 11.7232 7.82057C11.7 7.71305 11.6768 7.60554 11.649 7.49802C11.6026 7.55412 11.5562 7.60554 11.5098 7.66163C10.8696 8.44696 10.2665 9.34916 9.68196 10.256C8.52217 12.0838 7.4366 13.9957 6.37423 15.9169C5.31649 17.8429 4.28196 19.7828 3.2567 21.7368C2.16186 23.8263 1.08093 25.9205 0 28.0194V39H38.6954V37.2377C37.7954 37.0601 36.9093 36.7796 36.0835 36.3822C35.4758 36.1064 34.9052 35.7699 34.3531 35.4006" fill="white"/>
<path d="M0.0185567 0.00467458V25.4951C0.593814 23.9712 1.18763 22.4473 1.79536 20.9328C2.63505 18.8619 3.51186 16.8004 4.44433 14.753C5.38144 12.7055 6.35567 10.6721 7.48299 8.66667C8.05825 7.66163 8.64742 6.67062 9.4268 5.66559C9.62629 5.41316 9.83969 5.16073 10.1041 4.89896C10.234 4.76807 10.3871 4.63718 10.5634 4.49694C10.7397 4.36138 10.9531 4.21647 11.2732 4.08091C11.3521 4.04818 11.4495 4.01546 11.5376 3.98741C11.649 3.95937 11.7464 3.93132 11.8716 3.9173C12.1129 3.8799 12.4191 3.88457 12.7206 3.95937C13.0175 4.03416 13.3052 4.18375 13.4954 4.33801C13.7041 4.49694 13.8294 4.6512 13.9407 4.79612C14.0428 4.94103 14.117 5.07192 14.1773 5.19346C14.2144 5.26357 14.2237 5.28695 14.2423 5.33369L14.2933 5.45523C14.3629 5.61417 14.4186 5.76843 14.4742 5.92269C14.6876 6.52571 14.8454 7.10536 14.9799 7.67098C15.1144 8.23661 15.2304 8.80223 15.3371 9.36318C15.5459 10.4804 15.7175 11.5883 15.8753 12.6962C16.1907 14.9072 16.4412 17.109 16.7103 19.292L16.9144 20.9234L17.1232 22.4613L17.1418 22.5829C17.1418 22.5829 17.151 22.5829 17.1557 22.5735L18.1299 19.7267L19.1923 16.5667L19.7351 14.982L20.018 14.1873L20.1619 13.79L20.3381 13.3132C20.7186 12.2754 21.1175 11.247 21.549 10.3261C21.767 9.87738 21.9851 9.43797 22.2216 9.10608C22.3376 8.92377 22.4536 8.79288 22.5696 8.65264C22.6856 8.53578 22.8015 8.41891 22.9175 8.33945C23.1448 8.16181 23.3629 8.05897 23.5809 7.98885C23.6876 7.95146 23.799 7.93276 23.9196 7.90939C24.0402 7.89536 24.1701 7.88134 24.3649 7.89536C24.5691 7.91406 24.699 7.95146 24.801 7.9795C24.9031 8.00755 24.982 8.04495 25.0608 8.08235C25.2186 8.15246 25.3531 8.23193 25.5155 8.38152L25.6361 8.49838L25.766 8.66199L25.8309 8.74146C25.8541 8.76951 25.8727 8.81625 25.8959 8.85365L26.0258 9.08738C26.0722 9.14815 26.1046 9.28371 26.1371 9.39123L26.2438 9.7278C26.2531 9.75584 26.2624 9.78389 26.2717 9.81194L26.2856 9.91945L26.383 10.5645L26.6057 12.3035C26.6381 12.5933 26.6892 12.8644 26.7309 13.1402L26.8423 13.8461L27 14.781L27.1485 15.5804C27.2459 16.1133 27.3572 16.6462 27.4686 17.1744C27.6959 18.2355 27.9464 19.292 28.2201 20.3391C28.7768 22.4333 29.4356 24.4995 30.266 26.5002C30.6789 27.5005 31.1428 28.4775 31.6531 29.4265C31.9082 29.8986 32.182 30.3661 32.4696 30.8195C32.618 31.0439 32.7572 31.2729 32.915 31.4926L33.133 31.8058L33.2072 31.904C33.5876 32.4322 34.0052 32.9324 34.4459 33.4092C35.151 34.2834 35.9861 35.0734 36.9557 35.6997C37.4381 36.0176 37.967 36.2747 38.5144 36.4991C38.5794 36.5271 38.6536 36.5412 38.7186 36.5692V0.00467458H0.0185567Z" fill="white"/>
<path d="M46.7629 6.56778C46.9438 5.97878 47.1294 5.38979 47.3103 4.80079C47.3753 4.59511 47.4309 4.38475 47.5052 4.18375C47.5423 4.08091 47.5191 4.02949 47.4402 3.96404C46.851 3.51061 46.2619 3.05717 45.6773 2.59907C45.6448 2.57102 45.6077 2.54297 45.5428 2.49155C45.6216 2.49155 45.6727 2.4822 45.7191 2.4822C46.4242 2.4822 47.134 2.4822 47.8392 2.4822C47.9459 2.4822 47.9923 2.44948 48.0247 2.34664C48.2613 1.6174 48.5072 0.88817 48.7485 0.158936C48.7624 0.11219 48.7809 0.0701187 48.8041 0C48.9619 0.472132 49.1103 0.916217 49.2588 1.36498C49.3655 1.68752 49.4768 2.01474 49.5789 2.34196C49.6113 2.4448 49.6577 2.48688 49.7691 2.48688C50.4696 2.4822 51.1747 2.48688 51.8753 2.48688C51.9263 2.48688 51.9773 2.49155 52.0655 2.49622C51.8428 2.66918 51.6526 2.81877 51.4624 2.96836C51.0263 3.3096 50.5902 3.65085 50.1541 3.98274C50.0753 4.03884 50.066 4.09026 50.0985 4.17907C50.335 4.927 50.567 5.67494 50.799 6.42287C50.8129 6.47429 50.8268 6.52571 50.85 6.60985C50.1495 6.07228 49.4814 5.5534 48.8041 5.02985C48.1268 5.5534 47.4541 6.07228 46.7814 6.59115C46.7768 6.58181 46.7675 6.57713 46.7629 6.56778Z" fill="white"/>
<path d="M55.3268 6.56778C55.5077 5.97878 55.6933 5.38979 55.8742 4.80079C55.9392 4.59511 55.9948 4.38475 56.0691 4.18375C56.1062 4.08091 56.083 4.02949 56.0041 3.96404C55.4149 3.51061 54.8258 3.05717 54.2412 2.59907C54.2088 2.57102 54.1716 2.54297 54.1067 2.49155C54.1856 2.49155 54.2366 2.4822 54.283 2.4822C54.9881 2.4822 55.6979 2.4822 56.4031 2.4822C56.5098 2.4822 56.5562 2.44948 56.5887 2.34664C56.8253 1.6174 57.0711 0.88817 57.3124 0.158936C57.3263 0.11219 57.3448 0.0701187 57.368 0C57.5258 0.472132 57.6742 0.916217 57.8227 1.36498C57.9294 1.68752 58.0407 2.01474 58.1428 2.34196C58.1753 2.4448 58.2216 2.48688 58.333 2.48688C59.0335 2.4822 59.7387 2.48688 60.4392 2.48688C60.4902 2.48688 60.5412 2.49155 60.6294 2.49622C60.4067 2.66918 60.2165 2.81877 60.0263 2.96836C59.5902 3.3096 59.1541 3.65085 58.718 3.98274C58.6392 4.03884 58.6299 4.09026 58.6624 4.17907C58.899 4.927 59.1309 5.67494 59.3629 6.42287C59.3768 6.47429 59.3907 6.52571 59.4139 6.60985C58.7134 6.07228 58.0454 5.5534 57.368 5.02985C56.6907 5.5534 56.018 6.07228 55.3454 6.59115C55.3407 6.58181 55.3314 6.57713 55.3268 6.56778Z" fill="white"/>
<path d="M63.8907 6.56778C64.0716 5.97878 64.2572 5.38979 64.4381 4.80079C64.5031 4.59511 64.5588 4.38475 64.633 4.18375C64.6701 4.08091 64.6469 4.02949 64.5634 3.96404C63.9742 3.51061 63.3897 3.05717 62.8005 2.59907C62.768 2.57102 62.7309 2.54297 62.666 2.49155C62.7448 2.49155 62.7959 2.4822 62.8423 2.4822C63.5474 2.4822 64.2572 2.4822 64.9624 2.4822C65.0691 2.4822 65.1155 2.44948 65.1479 2.34664C65.3845 1.6174 65.6304 0.88817 65.8716 0.158936C65.8856 0.11219 65.9041 0.0701187 65.9273 0C66.0851 0.472132 66.2335 0.916217 66.382 1.36498C66.4887 1.68752 66.6 2.01474 66.7021 2.34196C66.7345 2.4448 66.7809 2.48688 66.8923 2.48688C67.5928 2.4822 68.2979 2.48688 68.9985 2.48688C69.0495 2.48688 69.1005 2.49155 69.1887 2.49622C68.966 2.66918 68.7758 2.81877 68.5856 2.96836C68.1495 3.3096 67.7134 3.65085 67.2773 3.98274C67.1984 4.03884 67.1938 4.09026 67.2216 4.17907C67.4582 4.927 67.6902 5.67494 67.9222 6.42287C67.9361 6.47429 67.95 6.52571 67.9732 6.60985C67.2727 6.07228 66.6046 5.5534 65.9273 5.02985C65.25 5.5534 64.5773 6.07228 63.9046 6.59115L63.8861 6.56778H63.8907Z" fill="white"/>
<path d="M72.45 6.56778C72.6309 5.97878 72.8165 5.38979 72.9974 4.80079C73.0624 4.59511 73.118 4.38475 73.1923 4.18375C73.2294 4.08091 73.2062 4.02949 73.1273 3.96404C72.5381 3.51061 71.949 3.05717 71.3644 2.59907C71.332 2.57102 71.2948 2.54297 71.2299 2.49155C71.3088 2.49155 71.3598 2.4822 71.4062 2.4822C72.1113 2.4822 72.8211 2.4822 73.5263 2.4822C73.633 2.4822 73.6794 2.44948 73.7119 2.34664C73.9485 1.6174 74.1943 0.88817 74.4356 0.158936C74.4495 0.11219 74.468 0.0701187 74.4912 0C74.649 0.472132 74.7974 0.916217 74.9459 1.36498C75.0526 1.68752 75.1639 2.01474 75.266 2.34196C75.2984 2.4448 75.3448 2.48688 75.4562 2.48688C76.1567 2.4822 76.8618 2.48688 77.5624 2.48688C77.6134 2.48688 77.6644 2.49155 77.7526 2.49622C77.5299 2.66918 77.3397 2.81877 77.1495 2.96836C76.7134 3.3096 76.2773 3.65085 75.8412 3.98274C75.7624 4.03884 75.7577 4.09026 75.7856 4.17907C76.0222 4.927 76.2541 5.67494 76.4861 6.42287C76.5 6.47429 76.5139 6.52571 76.5371 6.60985C75.8412 6.07228 75.1686 5.5534 74.4912 5.02985C73.8139 5.5534 73.1412 6.07228 72.4686 6.59115C72.4639 6.58181 72.4546 6.57713 72.45 6.56778Z" fill="white"/>
<path d="M78.7917 2.37936C78.6155 2.32327 78.4763 2.25315 78.3742 2.16433L78.5227 1.90723C78.6247 1.9867 78.75 2.05214 78.9031 2.10356C79.0562 2.15498 79.2139 2.17835 79.3763 2.17835C79.5943 2.17835 79.7567 2.14563 79.8634 2.07551C79.9701 2.00539 80.0211 1.90723 80.0211 1.78569C80.0211 1.69687 79.9933 1.62675 79.933 1.57533C79.8773 1.52391 79.8031 1.48652 79.7149 1.45847C79.6268 1.43042 79.5108 1.40705 79.3624 1.38367C79.1675 1.34628 79.0098 1.30888 78.8938 1.27149C78.7732 1.23409 78.6758 1.16864 78.5923 1.07515C78.5088 0.981661 78.467 0.855448 78.467 0.691837C78.467 0.490831 78.5505 0.322546 78.7175 0.196332C78.8799 0.0701187 79.1119 0.00467458 79.4134 0.00467458C79.5665 0.00467458 79.7242 0.0233729 79.8773 0.0654441C80.035 0.107515 80.1603 0.16361 80.2624 0.229054L80.1232 0.490831C79.9237 0.355268 79.6917 0.285149 79.418 0.285149C79.2093 0.285149 79.0562 0.322546 78.9495 0.397339C78.8474 0.472132 78.7917 0.565624 78.7917 0.687163C78.7917 0.780654 78.8196 0.850773 78.8799 0.906868C78.9402 0.962963 79.0144 1.00036 79.1026 1.02841C79.1907 1.05645 79.3113 1.07983 79.4691 1.10787C79.6593 1.14527 79.817 1.18267 79.9283 1.22006C80.0443 1.25746 80.1417 1.31823 80.2253 1.40705C80.3088 1.49586 80.3505 1.6174 80.3505 1.77634C80.3505 1.9867 80.2624 2.15498 80.0861 2.28119C79.9098 2.40273 79.6686 2.46818 79.3577 2.46818C79.1629 2.46818 78.9773 2.44013 78.801 2.38403" fill="white"/>
<path d="M71.8052 17.0856V27.7763H67.8062V17.2118C67.8062 14.6782 66.3263 13.5049 64.35 13.5049C62.1789 13.5049 60.6247 14.6969 60.6247 17.4595V27.7763H56.6304V17.2118C56.6304 14.6782 55.299 13.5049 53.3227 13.5049C51.2026 13.5049 49.6206 14.6969 49.6206 17.4595V27.7763H45.6217V10.3729H49.4954V12.5092C50.5299 10.9666 52.3067 10.069 54.6031 10.069C56.8995 10.069 58.7969 10.9899 59.7619 12.6307C60.9448 10.9666 62.9722 10.069 65.3381 10.069C69.3603 10.069 71.8052 12.4811 71.8052 17.0809" fill="white"/>
<path d="M74.6675 19.0723C74.6675 13.9022 78.6665 10.0737 84.1175 10.0737C89.5686 10.0737 93.5675 13.8788 93.5675 19.0723C93.5675 24.2657 89.5454 28.0708 84.1175 28.0708C78.6897 28.0708 74.6675 24.2424 74.6675 19.0723ZM89.5222 19.0723C89.5222 15.7673 87.2026 13.5049 84.1175 13.5049C81.0325 13.5049 78.7129 15.7673 78.7129 19.0723C78.7129 22.3772 81.0325 24.6397 84.1175 24.6397C87.2026 24.6397 89.5222 22.3772 89.5222 19.0723Z" fill="white"/>
<path d="M112.273 17.5811V27.7763H108.274V17.7073C108.274 14.8465 106.845 13.5049 104.599 13.5049C102.354 13.5049 100.577 14.9212 100.577 17.9831V27.781H96.5783V10.3729H100.452V12.4858C101.635 10.8684 103.463 10.0737 105.731 10.0737C109.828 10.0737 112.268 12.7335 112.268 17.5811" fill="white"/>
<path d="M134.917 10.2841H130.918V27.7763H134.917V10.2841Z" fill="white"/>
<path d="M114.11 10.3729L115.079 13.603H119.241V27.7763H123.24V13.603H127.364V10.3729H114.11Z" fill="white"/>
<path d="M49.5 35.8026H46.0995V33.3251H45.5428V38.8831H46.0995V36.3215H49.5V38.8831H50.0613V33.3251H49.5V35.8026Z" fill="white"/>
<path d="M54.1067 33.2877C52.4737 33.2877 51.2443 34.4984 51.2443 36.1018C51.2443 37.7051 52.4737 38.9205 54.1067 38.9205C55.7397 38.9205 56.9691 37.7098 56.9691 36.1018C56.9691 34.4937 55.7397 33.2877 54.1067 33.2877ZM56.3985 36.1064C56.3985 37.406 55.4103 38.3876 54.1021 38.3876C52.7938 38.3876 51.7964 37.406 51.7964 36.1064C51.7964 34.8069 52.7845 33.8252 54.1021 33.8252C55.4196 33.8252 56.3985 34.8069 56.3985 36.1064Z" fill="white"/>
<path d="M57.2474 33.8533H59.168V38.8831H59.7294V33.8533H61.65V33.3297H57.2474V33.8533Z" fill="white"/>
<path d="M63 36.3215H65.8484V35.8073H63V33.858H66.1825V33.3297H62.4433V38.8831H66.2984V38.3596H63V36.3215Z" fill="white"/>
<path d="M68.1077 33.3297H67.5464V38.8831H71.1835V38.3596H68.1077V33.3297Z" fill="white"/>
<path d="M72.232 35.3912C71.9211 35.3912 71.6706 35.6437 71.6706 35.9569C71.6706 36.2701 71.9165 36.5271 72.232 36.5271C72.5474 36.5271 72.7887 36.2747 72.7887 35.9569C72.7887 35.639 72.5381 35.3912 72.232 35.3912Z" fill="white"/>
<path d="M76.3655 35.8634C75.5675 35.667 74.8809 35.4987 74.8809 34.7976C74.8809 34.1758 75.4098 33.8065 76.3005 33.8065C76.8015 33.8065 77.3165 33.9655 77.7155 34.246L77.799 34.3021L78.017 33.8299L77.9613 33.7878C77.5299 33.4746 76.9082 33.2877 76.3005 33.2877C74.8438 33.2877 74.3196 34.073 74.3196 34.8022C74.3196 35.9148 75.3077 36.1579 76.1799 36.3729C76.9732 36.5692 77.6552 36.7375 77.6552 37.434C77.6552 38.0417 77.1124 38.4017 76.1985 38.4017C75.5397 38.4017 74.8716 38.1446 74.4959 37.7519L74.417 37.6724L74.1479 38.1165L74.1897 38.1632C74.6072 38.626 75.3959 38.9205 76.1985 38.9205C77.683 38.9205 78.2072 38.1072 78.2072 37.4106C78.2072 36.3215 77.2237 36.0784 76.3562 35.8634" fill="white"/>
<path d="M81.3665 33.3297H79.367V38.8878H79.9283V37.1255H81.3711C82.7722 37.1255 83.6119 36.4196 83.6119 35.2323C83.6119 34.0449 82.7768 33.3297 81.3711 33.3297M83.0366 35.2276C83.0366 36.1111 82.4428 36.5973 81.3665 36.5973H79.9237V33.8533H81.3665C82.4428 33.8533 83.0366 34.3441 83.0366 35.2276Z" fill="white"/>
<path d="M86.8222 33.2877C85.384 33.2877 84.5629 34.1712 84.5629 35.7138V38.8831H85.1242V37.2237H88.5247V38.8831H89.0861V35.7138C89.0861 34.1712 88.2603 33.2877 86.8222 33.2877ZM88.5247 35.6764V36.7001H85.1242V35.6764C85.1242 34.4657 85.7134 33.8252 86.8222 33.8252C87.9309 33.8252 88.5247 34.4657 88.5247 35.6764Z" fill="white"/>
<path d="M91.3314 35.3912C91.0253 35.3912 90.7701 35.6437 90.7701 35.9569C90.7701 36.2701 91.016 36.5271 91.3314 36.5271C91.6469 36.5271 91.8881 36.2747 91.8881 35.9569C91.8881 35.639 91.6376 35.3912 91.3314 35.3912Z" fill="white"/>
<path d="M98.4479 37.9996L96.866 33.3858L96.8474 33.3297H96.351L94.7412 37.995L93.1964 33.3905L93.1778 33.3297H92.584L94.4397 38.827L94.4582 38.8831H94.9918L96.5969 34.2319L98.1696 38.827L98.1928 38.8831H98.7263L100.591 33.3297H100.03L98.4479 37.9996Z" fill="white"/>
<path d="M102.066 36.3215H104.915V35.8073H102.066V33.858H105.249V33.3297H101.51V38.8831H105.365V38.3596H102.066V36.3215Z" fill="white"/>
<path d="M107.174 33.3297H106.613V38.8831H110.25V38.3596H107.174V33.3297Z" fill="white"/>
<path d="M111.637 33.3297H111.076V38.8831H114.713V38.3596H111.637V33.3297Z" fill="white"/>
<path d="M119.501 37.8407L116.021 33.3625L115.993 33.3297H115.539V38.8831H116.1V34.3722L119.589 38.8504L119.612 38.8831H120.062V33.3297H119.501V37.8407Z" fill="white"/>
<path d="M122.312 36.3215H125.156V35.8073H122.312V33.858H125.494V33.3297H121.751V38.8831H125.606V38.3596H122.312V36.3215Z" fill="white"/>
<path d="M128.505 35.8634C127.707 35.667 127.021 35.4987 127.021 34.7976C127.021 34.1758 127.549 33.8065 128.44 33.8065C128.941 33.8065 129.456 33.9655 129.855 34.246L129.939 34.3021L130.157 33.8299L130.101 33.7878C129.674 33.4793 129.039 33.2877 128.44 33.2877C126.984 33.2877 126.464 34.073 126.464 34.8022C126.464 35.9148 127.452 36.1579 128.324 36.3729C129.113 36.5692 129.799 36.7375 129.799 37.434C129.799 38.0417 129.257 38.4017 128.343 38.4017C127.684 38.4017 127.016 38.1446 126.64 37.7519L126.561 37.6724L126.297 38.1165L126.339 38.1632C126.756 38.626 127.545 38.9205 128.347 38.9205C129.832 38.9205 130.356 38.1072 130.356 37.4106C130.356 36.3215 129.373 36.0784 128.505 35.8634Z" fill="white"/>
<path d="M133.149 35.8634C132.351 35.667 131.664 35.4987 131.664 34.7976C131.664 34.1758 132.193 33.8065 133.084 33.8065C133.585 33.8065 134.1 33.9655 134.499 34.246L134.582 34.3021L134.801 33.8299L134.745 33.7878C134.318 33.4793 133.682 33.2877 133.084 33.2877C131.627 33.2877 131.108 34.073 131.108 34.8022C131.108 35.9148 132.096 36.1579 132.968 36.3729C133.761 36.5692 134.443 36.7375 134.443 37.434C134.443 38.0417 133.901 38.4017 132.987 38.4017C132.328 38.4017 131.66 38.1446 131.284 37.7519L131.205 37.6724L130.941 38.1165L130.982 38.1632C131.4 38.626 132.189 38.9205 132.991 38.9205C134.476 38.9205 135 38.1072 135 37.4106C135 36.3215 134.016 36.0784 133.149 35.8634Z" fill="white"/>
</svg>
